<svg width="24" height="24" viewBox="0 0 24 24" fill="none" xmlns="http://www.w3.org/2000/svg">
<path d="M0.75 12C0.75 14.9837 1.93526 17.8452 4.04505 19.955C6.15483 22.0647 9.01631 23.25 12 23.25C14.9837 23.25 17.8452 22.0647 19.955 19.955C22.0647 17.8452 23.25 14.9837 23.25 12C23.25 9.01631 22.0647 6.15483 19.955 4.04505C17.8452 1.93526 14.9837 0.75 12 0.75C9.01631 0.75 6.15483 1.93526 4.04505 4.04505C1.93526 6.15483 0.75 9.01631 0.75 12V12Z" stroke="white" stroke-linecap="round" stroke-linejoin="round"/>
<path d="M3.77399 19.675C5.14499 15.518 9.33899 6.48401 20.3 4.40601" stroke="white" stroke-linecap="round" stroke-linejoin="round"/>
<path d="M3.60001 4.51999C8.08401 6.15299 16.472 10.6 18.231 21.38" stroke="white" stroke-linecap="round" stroke-linejoin="round"/>
<path d="M10.524 0.846008C10.5816 2.06968 10.3682 3.29098 9.89908 4.4226C9.42991 5.55423 8.71655 6.56824 7.80999 7.39216C6.90343 8.21608 5.82606 8.82956 4.65487 9.18876C3.48369 9.54795 2.24761 9.64399 1.035 9.47001" stroke="white" stroke-linecap="round" stroke-linejoin="round"/>
<path d="M11.791 23.248C7.12101 15.758 15.87 7.17 23.248 11.791" stroke="white" stroke-linecap="round" stroke-linejoin="round"/>
</svg>
