<svg width="193" height="30" viewBox="0 0 193 30" fill="none" xmlns="http://www.w3.org/2000/svg">
<g clip-path="url(#clip0_4_37)">
<path d="M192.511 20.9882C193.019 19.5 192.653 16.6772 192.264 15.3898C191.249 12.0591 189.302 10.0276 185.927 9.07086C185.172 8.85826 184.428 8.85826 183.555 8.71653C182.398 8.52755 180.864 8.64566 179.861 8.87007C176.026 9.73228 173.395 11.5512 171.849 14.6929C171.412 15.5906 171.141 16.6063 170.905 17.7165C170.468 19.7953 170.928 22.252 171.53 23.7402C172.911 27.1063 175.578 28.7008 179.425 29.6102C180.345 29.8228 182.316 30.1181 183.425 29.9409H184.393C185.337 29.8701 186.269 29.7874 187.213 29.7165C188.7 29.4331 190.139 29.2441 191.402 28.7717C191.084 27.5315 190.777 26.2795 190.458 25.0276C189.962 25.1457 189.455 25.2638 188.959 25.3819C188.204 25.5 187.437 25.6181 186.682 25.7362C186.08 25.7717 185.49 25.7953 184.888 25.8307C184.286 25.9252 183.531 25.8661 183.012 25.7835C180.746 25.4055 178.988 24.9567 177.973 23.3622C177.548 22.689 177.407 21.9921 177.23 21.0118V20.9882C182.339 21 187.425 21 192.511 20.9882ZM177.525 15.8622C177.95 14.5394 178.835 13.4528 180.015 12.8858C180.357 12.7205 180.77 12.6142 181.183 12.5315C181.395 12.5079 181.62 12.4843 181.832 12.4606C184.275 12.437 185.467 13.4764 186.127 15.2362C186.293 15.6732 186.576 16.5827 186.422 17.185H177.289C177.277 17.1732 177.277 17.1496 177.265 17.1378C177.348 16.7126 177.43 16.2874 177.525 15.8622Z" fill="#E2E2E2"/>
<path d="M146.726 9.09449H151.871C152.402 9.09449 153.629 8.96456 154.019 9.14173C154.597 10.8425 155.163 12.5315 155.741 14.2205C156.886 17.4685 157.948 20.6929 158.762 24.2362C158.845 24.248 158.845 24.248 158.916 24.2126C158.975 23.2677 159.482 21.8976 159.742 21.0354C160.32 19.1457 160.851 17.3386 161.465 15.5315C162.161 13.3937 162.857 11.2441 163.541 9.1063H170.527C167.636 15.9331 164.733 22.7717 161.842 29.5984H155.258C153.181 24.6142 151.092 19.6181 149.015 14.6339C148.472 13.3346 147.93 12.0354 147.387 10.7362C147.245 10.3701 146.714 9.42519 146.726 9.09449Z" fill="#E2E2E2"/>
<path d="M130.04 3.1181C135.173 4.11023 140.306 5.10235 145.44 6.09448C142.041 10.1339 138.654 14.1732 135.256 18.2126C135.232 18.2008 135.209 18.1772 135.185 18.1654C134.63 16.5591 134.076 14.9409 133.533 13.3228C131.008 13.5945 128.589 17.1142 129.545 20.315C129.993 21.815 130.937 22.9252 132.164 23.6575C132.577 23.9055 133.108 24.0945 133.616 24.2126C137.026 25.0748 139.48 22.4055 140.129 20.0197C140.365 19.1457 140.283 17.9173 140.035 17.126C139.952 16.8898 139.87 16.6654 139.787 16.4291C141.062 14.9291 142.336 13.4291 143.611 11.9291C143.622 11.9409 143.646 11.9409 143.658 11.9528C143.823 12.2008 143.988 12.4488 144.153 12.6969C144.425 13.2402 144.708 13.7835 144.979 14.3268C145.451 15.437 145.569 16.6181 145.805 18.0236C145.794 18.4606 145.794 18.9095 145.782 19.3465C145.735 19.8071 145.687 20.2559 145.652 20.7165C145.475 21.5079 145.263 22.2874 144.979 22.9606C143.599 26.2087 141.333 28.4291 137.817 29.5276C136.743 29.8583 135.067 30.189 133.604 29.9291C132.919 29.811 132.223 29.7402 131.61 29.5276C127.951 28.2874 125.556 25.878 124.293 22.252C123.727 20.6339 123.515 18 123.998 16.0984C124.258 15.0827 124.588 14.0787 125.072 13.252C126.146 11.4213 127.479 9.98031 129.285 8.88188C129.757 8.64566 130.229 8.42125 130.689 8.18503C131.008 8.06692 131.315 7.96062 131.633 7.85432C131.114 6.27165 130.571 4.68897 130.04 3.1181Z" fill="#E2E2E2"/>
<path d="M75.2982 8.66932C77.3633 8.6457 79.216 8.76381 80.809 9.22444C81.3636 9.41341 81.9064 9.60239 82.4611 9.77956C82.048 11.0433 81.6232 12.3189 81.2102 13.5827C81.1984 13.5945 81.1748 13.5945 81.163 13.6063C80.7264 13.4528 80.278 13.2874 79.8414 13.1339C78.2129 12.5669 75.2864 12.1772 73.894 13.2284C73.5046 13.5236 73.0444 14.0906 73.245 14.8819C73.6226 16.3347 76.3249 16.8662 77.7173 17.4095C80.4196 18.4606 82.8977 19.689 83.4287 22.937C83.7355 24.8504 82.7679 26.1969 82.0008 27.1536C79.216 30.6142 70.6135 30.5315 66.2001 28.5827C66.6367 27.2717 67.0616 25.9488 67.4982 24.6378C69.2446 25.4528 72.6903 26.504 75.2156 25.7835C76.2305 25.4882 77.4577 24.6851 76.8441 23.2087C76.3249 21.9449 74.4486 21.4961 73.127 21.0355C71.2035 20.3622 69.1148 19.5236 67.9584 18.0827C67.6044 17.6457 67.2622 17.1732 67.038 16.6063C66.7783 15.9449 66.6957 14.9292 66.8846 14.1378C67.4628 11.5985 69.2092 10.2638 71.4513 9.38979C72.1593 9.11814 72.95 8.96459 73.7524 8.81105C74.2716 8.77562 74.7908 8.71656 75.2982 8.66932Z" fill="#FDBB11"/>
<path d="M64.0524 25.3346C64.076 26.7283 64.0996 28.1102 64.1232 29.5039C63.604 29.6102 63.0848 29.7165 62.5538 29.8228C61.9638 29.8701 61.3738 29.9173 60.7837 29.9528C59.9695 30.0827 58.7187 29.9882 58.0106 29.8583C55.5916 29.4213 54.0457 28.7362 52.9955 26.9646C52.1459 25.5236 52.1223 23.4567 52.1223 21.1181V13.122C51.0012 13.1102 49.8802 13.1102 48.7592 13.0984C48.771 11.7638 48.771 10.4291 48.7828 9.0945H52.1223V6.34253C52.1223 6.0945 52.0397 5.50395 52.1695 5.36222C54.3879 4.84253 56.5946 4.31104 58.8131 3.79135V9.05907C58.8249 9.07088 58.8249 9.0945 58.8367 9.10631C60.7129 9.11812 62.5774 9.11812 64.4537 9.12993C64.4419 10.4646 64.4419 11.7992 64.4301 13.1339C62.5538 13.1457 60.6893 13.1457 58.8131 13.1575V20.8583C58.8131 22.6063 58.8249 24.1772 59.7925 24.9331C60.9017 25.7953 62.4712 25.3819 64.0524 25.3346Z" fill="#FDBB11"/>
<path d="M47.0127 20.9882C47.4965 19.6772 47.1543 16.748 46.8121 15.5197C45.5141 10.878 42.1863 8.58663 36.1563 8.6693C35.8259 8.70474 35.4837 8.72836 35.1533 8.76379C34.5279 8.8819 33.9025 9.00001 33.277 9.11812C31.035 9.79135 29.0761 10.878 27.7899 12.4961C26.893 13.6299 26.185 14.8701 25.713 16.4409C25.4062 17.4449 25.1348 18.9685 25.3118 20.1614C25.536 21.7087 25.5596 22.7835 26.1142 23.9646C27.5893 27.1063 30.1027 28.6772 33.8081 29.6102C34.5751 29.7992 35.4011 29.7874 36.2271 29.9291C36.6284 29.9409 37.0296 29.9409 37.4308 29.9528C38.2686 30.0945 40.1095 29.9646 40.9237 29.8228C41.9149 29.6457 42.918 29.6102 43.8502 29.374C44.5346 29.185 45.2072 28.9961 45.8917 28.8189C45.9507 28.5354 45.7383 28.122 45.6675 27.8504C45.4314 26.9173 45.2072 25.9843 44.9712 25.0512C44.4756 25.1693 43.9682 25.2874 43.4726 25.4055C42.7056 25.5236 41.9503 25.6417 41.1951 25.7598C40.5933 25.7953 40.0033 25.8189 39.4014 25.8543C38.8232 25.937 38.0326 25.8898 37.5016 25.8071C35.2241 25.4409 33.4777 24.9449 32.4628 23.3386C32.0498 22.6772 31.9082 21.9803 31.743 21.0354V21.0118C36.8408 21 41.9267 21 47.0127 20.9882ZM32.2268 15.4134C32.7696 14.1142 33.6665 13.1575 35.0235 12.685C35.4129 12.5551 35.8967 12.626 36.3215 12.4606C38.6462 12.4488 39.8853 13.3937 40.5461 15.0354C40.7349 15.5197 41.0889 16.4882 40.9001 17.185C37.8674 17.1969 34.8465 17.1969 31.8138 17.2087C31.6132 16.9843 32.1324 15.6378 32.2268 15.4134Z" fill="#FDBB11"/>
<path d="M23.0461 15.2363C22.0431 12.2245 20.3202 10.1812 17.323 9.16547C16.2727 8.81114 14.6561 8.45681 13.1574 8.69303C12.4848 8.79933 11.8122 8.83476 11.2104 9.00012C9.92412 9.37807 8.88568 9.90956 7.96525 10.63C7.65844 10.9371 7.35163 11.256 7.04483 11.5749C6.90322 11.4096 6.99762 9.17728 6.99762 8.70484C6.99762 5.83476 6.98582 2.95287 6.98582 0.0709833C6.84422 -0.047127 5.54618 0.0237392 5.23937 0.0237392H0.200606V19.819C0.200606 22.3348 0.342211 25.0867 0.106203 27.4135C0.0708023 28.1222 0.0354011 28.8308 0 29.5395C0.177006 29.6694 1.25084 29.5867 1.56945 29.5867H5.79398C5.90019 28.6655 6.01819 27.7324 6.1362 26.8111V26.7639H6.2424C6.47841 27.0592 6.72621 27.3663 6.96222 27.6615C7.56404 28.4174 8.61427 29.0316 9.58191 29.4096C10.2899 29.6812 11.0806 29.7993 11.9302 29.9411C13.9716 30.2836 16.0721 29.693 17.4528 29.1143C20.3792 27.8859 22.3145 25.5946 23.1995 22.323C23.4237 21.4962 23.4355 20.6222 23.5772 19.6773C23.8014 18.26 23.3765 16.2167 23.0461 15.2363ZM16.6739 20.6694C16.5677 21.2836 16.4497 21.8859 16.2491 22.4174C15.5175 24.2836 14.3021 25.2757 12.0482 25.6418C11.588 25.7127 11.0216 25.63 10.6557 25.5474C8.72048 25.1576 7.46964 24.071 7.05663 22.1694C6.87962 21.3663 7.00942 20.256 7.00942 19.3702C7.00942 18.3308 6.86782 17.1261 7.11563 16.2993C7.55224 14.8584 8.50807 13.8781 9.81791 13.323C10.2309 13.1458 10.7265 13.1812 11.1868 13.0159C14.6325 13.0041 16.0131 14.7757 16.6031 17.6104C16.7919 18.4844 16.8509 19.7127 16.6739 20.6694Z" fill="#FDBB11"/>
<path d="M114.617 29.5866V20.8465C114.617 16.7835 114.924 13.7008 111.348 13.122C110.511 12.9803 109.708 13.252 109.177 13.4764C106.687 14.5512 106.911 16.7953 106.911 20.2913V29.5866H100.268V20.7874C100.268 16.7362 100.657 13.748 97.0935 13.122C95.7129 12.8858 94.6391 13.5945 93.9664 14.126C92.4442 15.3307 92.574 17.1378 92.574 19.8425V29.5866C90.3555 29.5748 88.1253 29.5748 85.9068 29.563V15.1181C85.8832 13.8189 85.8596 12.5197 85.836 11.2205C85.8006 10.5236 85.777 9.82676 85.7416 9.14172C87.665 9.15353 89.5885 9.15353 91.512 9.16534C91.6182 10.063 91.7244 10.9606 91.8306 11.8583C91.8424 11.8701 91.866 11.8701 91.8778 11.8819C92.2908 11.7047 92.5622 11.1496 92.9044 10.8779C93.577 10.3346 94.3205 9.82676 95.1701 9.46062C99.2058 7.75983 104.197 8.95274 105.731 12.1299H105.826C106.935 10.6417 108.705 9.51967 110.77 8.99999C114.535 8.04329 118.157 9.34251 119.715 11.5275C121.733 14.3622 121.261 18.9803 121.261 23.7756V29.5984L114.617 29.5866Z" fill="#E2E2E2"/>
</g>
<defs>
<clipPath id="clip0_4_37">
<rect width="192.818" height="30" fill="white"/>
</clipPath>
</defs>
</svg>
