<svg width="105" height="30" viewBox="0 0 105 30" fill="none" xmlns="http://www.w3.org/2000/svg">
<path d="M34.2951 21V9.264H38.3271C38.9751 9.264 39.5811 9.33 40.1451 9.462C40.7091 9.582 41.2011 9.792 41.6211 10.092C42.0411 10.38 42.3711 10.77 42.6111 11.262C42.8631 11.742 42.9891 12.336 42.9891 13.044C42.9891 13.728 42.8631 14.322 42.6111 14.826C42.3711 15.33 42.0411 15.744 41.6211 16.068C41.2011 16.392 40.7151 16.632 40.1631 16.788C39.6111 16.944 39.0231 17.022 38.3991 17.022H36.9411V21H34.2951ZM36.9411 14.916H38.2371C39.6771 14.916 40.3971 14.292 40.3971 13.044C40.3971 12.432 40.2051 12 39.8211 11.748C39.4371 11.496 38.8851 11.37 38.1651 11.37H36.9411V14.916ZM45.0177 21V9.264H47.6637V21H45.0177ZM46.3317 8.382C45.8877 8.382 45.5217 8.256 45.2337 8.004C44.9457 7.74 44.8017 7.404 44.8017 6.996C44.8017 6.588 44.9457 6.258 45.2337 6.006C45.5217 5.742 45.8877 5.61 46.3317 5.61C46.7757 5.61 47.1417 5.742 47.4297 6.006C47.7177 6.258 47.8617 6.588 47.8617 6.996C47.8617 7.404 47.7177 7.74 47.4297 8.004C47.1417 8.256 46.7757 8.382 46.3317 8.382ZM52.4478 21V16.824L48.9018 9.264H51.7458L52.7898 11.964C52.9578 12.408 53.1138 12.84 53.2578 13.26C53.4138 13.668 53.5758 14.1 53.7438 14.556H53.8158C53.9838 14.1 54.1458 13.668 54.3018 13.26C54.4698 12.84 54.6378 12.408 54.8058 11.964L55.8678 9.264H58.6398L55.0938 16.824V21H52.4478ZM62.3264 15.06L62.0384 16.14H64.5404L64.2704 15.06C64.1024 14.472 63.9404 13.848 63.7844 13.188C63.6284 12.528 63.4724 11.892 63.3164 11.28H63.2444C63.1004 11.904 62.9504 12.546 62.7944 13.206C62.6504 13.854 62.4944 14.472 62.3264 15.06ZM58.0784 21L61.7504 9.264H64.9364L68.6084 21H65.8004L65.0804 18.21H61.4984L60.7784 21H58.0784ZM69.8908 21V9.264H72.6088L75.6688 15.096L76.8208 17.688H76.8928C76.8328 17.064 76.7608 16.368 76.6768 15.6C76.6048 14.832 76.5688 14.1 76.5688 13.404V9.264H79.0888V21H76.3708L73.3108 15.15L72.1588 12.594H72.0868C72.1468 13.242 72.2128 13.938 72.2848 14.682C72.3688 15.426 72.4108 16.146 72.4108 16.842V21H69.8908ZM87.0455 21.216C86.2415 21.216 85.4855 21.09 84.7775 20.838C84.0815 20.574 83.4755 20.19 82.9595 19.686C82.4435 19.182 82.0355 18.558 81.7355 17.814C81.4475 17.058 81.3035 16.188 81.3035 15.204C81.3035 14.232 81.4535 13.368 81.7535 12.612C82.0535 11.844 82.4615 11.196 82.9775 10.668C83.5055 10.14 84.1175 9.738 84.8135 9.462C85.5095 9.186 86.2475 9.048 87.0275 9.048C87.8795 9.048 88.6115 9.204 89.2235 9.516C89.8355 9.828 90.3335 10.182 90.7175 10.578L89.3315 12.27C89.0315 12.006 88.7135 11.784 88.3775 11.604C88.0415 11.424 87.6215 11.334 87.1175 11.334C86.6615 11.334 86.2415 11.424 85.8575 11.604C85.4855 11.772 85.1615 12.018 84.8855 12.342C84.6095 12.666 84.3935 13.062 84.2375 13.53C84.0935 13.998 84.0215 14.526 84.0215 15.114C84.0215 16.326 84.2915 17.268 84.8315 17.94C85.3835 18.6 86.2115 18.93 87.3155 18.93C87.5555 18.93 87.7895 18.9 88.0175 18.84C88.2455 18.78 88.4315 18.69 88.5755 18.57V16.554H86.6315V14.394H90.9155V19.794C90.5075 20.19 89.9675 20.526 89.2955 20.802C88.6235 21.078 87.8735 21.216 87.0455 21.216ZM98.11 21.216C97.318 21.216 96.592 21.078 95.932 20.802C95.284 20.514 94.726 20.106 94.258 19.578C93.79 19.05 93.424 18.408 93.16 17.652C92.908 16.896 92.782 16.038 92.782 15.078C92.782 14.118 92.908 13.266 93.16 12.522C93.424 11.766 93.79 11.136 94.258 10.632C94.726 10.116 95.284 9.726 95.932 9.462C96.592 9.186 97.318 9.048 98.11 9.048C98.902 9.048 99.622 9.186 100.27 9.462C100.93 9.726 101.494 10.116 101.962 10.632C102.43 11.148 102.79 11.784 103.042 12.54C103.306 13.284 103.438 14.13 103.438 15.078C103.438 16.038 103.306 16.896 103.042 17.652C102.79 18.408 102.43 19.05 101.962 19.578C101.494 20.106 100.93 20.514 100.27 20.802C99.622 21.078 98.902 21.216 98.11 21.216ZM98.11 18.93C98.914 18.93 99.55 18.588 100.018 17.904C100.486 17.208 100.72 16.266 100.72 15.078C100.72 13.902 100.486 12.984 100.018 12.324C99.55 11.664 98.914 11.334 98.11 11.334C97.306 11.334 96.67 11.664 96.202 12.324C95.734 12.984 95.5 13.902 95.5 15.078C95.5 16.266 95.734 17.208 96.202 17.904C96.67 18.588 97.306 18.93 98.11 18.93Z" fill="#FCC70B"/>
<path fill-rule="evenodd" clip-rule="evenodd" d="M3.90909 0C2.25223 0 0.909088 1.34315 0.909088 3V27C0.909088 28.6569 2.25223 30 3.90909 30H21.9091C23.5659 30 24.9091 28.6569 24.9091 27V3C24.9091 1.34315 23.5659 0 21.9091 0H3.90909ZM20.6274 7.21256L8.76866 5C8.87016 5.28986 8.97223 5.58027 9.07444 5.87108C9.38398 6.75183 9.69484 7.6363 9.99542 8.52077C9.75007 8.59979 9.51381 8.67881 9.26845 8.76661C9.05639 8.87169 8.84107 8.97362 8.62445 9.07617C8.47905 9.145 8.33307 9.21411 8.18708 9.28463C6.79675 10.1012 5.7699 11.1723 4.94297 12.5332C4.5704 13.1478 4.31596 13.8941 4.11604 14.6492C3.74347 16.0628 3.90704 18.0207 4.34322 19.2236C5.31555 21.919 7.16024 23.7102 9.97725 24.6321C10.3359 24.752 10.7312 24.8113 11.1314 24.8713C11.2584 24.8903 11.386 24.9094 11.513 24.9306C12.6398 25.1237 13.9302 24.8779 14.7571 24.6321C17.4651 23.8155 19.2098 22.1649 20.273 19.7504C20.4911 19.2499 20.6547 18.6704 20.791 18.0822C20.8159 17.7689 20.8484 17.463 20.8816 17.151C20.8847 17.1219 20.8878 17.0929 20.8909 17.0637C20.8955 16.9013 20.8977 16.7367 20.9 16.572C20.9023 16.4074 20.9045 16.2428 20.9091 16.0804C20.8755 15.8873 20.845 15.6999 20.8154 15.5175C20.6845 14.7129 20.5693 14.005 20.273 13.3322C20.1685 13.1303 20.0617 12.9283 19.9549 12.7264C19.8482 12.5245 19.7414 12.3225 19.6369 12.1206L19.2552 11.5674C19.2507 11.563 19.2439 11.5609 19.2371 11.5587C19.2302 11.5565 19.2234 11.5543 19.2189 11.5499L16.2746 14.8951C16.3064 14.9829 16.3383 15.0685 16.3701 15.1541C16.4019 15.2397 16.4337 15.3253 16.4655 15.4131C16.6563 16.0013 16.7199 16.9145 16.5382 17.5642C16.0384 19.3377 14.1483 21.322 11.5221 20.6811C11.1313 20.5933 10.7224 20.4528 10.4043 20.2684C9.45928 19.724 8.73231 18.8987 8.387 17.7837C7.65094 15.4043 9.5138 12.7879 11.4585 12.5859C11.8765 13.7888 12.3036 14.9916 12.7307 16.1857C12.7397 16.1901 12.7488 16.1967 12.7579 16.2033C12.767 16.2099 12.7761 16.2164 12.7852 16.2208C14.0937 14.7195 15.3999 13.2182 16.7061 11.7169C18.0124 10.2155 19.3188 8.71401 20.6274 7.21256Z" fill="#FCC70B"/>
</svg>
