<svg width="24" height="24" viewBox="0 0 24 24" fill="none" xmlns="http://www.w3.org/2000/svg">
<path d="M7.43128 0.823547C11.8492 1.64783 16.2672 2.47212 20.6852 3.2964C17.7602 6.65243 14.8453 10.0085 11.9203 13.3645C11.9 13.3547 11.8797 13.335 11.8594 13.3252C11.3821 11.9907 10.9047 10.6463 10.4375 9.30193C8.26409 9.52762 6.18207 12.4519 7.00473 15.1112C7.39066 16.3574 8.20316 17.2798 9.25941 17.8882C9.61487 18.0943 10.0719 18.2513 10.5086 18.3494C13.4438 19.0658 15.5563 16.8481 16.1149 14.8659C16.318 14.1397 16.2469 13.1192 16.0336 12.4617C15.9625 12.2654 15.8914 12.079 15.8203 11.8827C16.9172 10.6365 18.0141 9.39024 19.1109 8.144C19.1211 8.15381 19.1414 8.15381 19.1516 8.16363C19.2938 8.3697 19.4359 8.57577 19.5781 8.78184C19.8117 9.23324 20.0555 9.68463 20.2891 10.136C20.6953 11.0584 20.7969 12.0397 21 13.2075C20.9898 13.5706 20.9898 13.9434 20.9797 14.3065C20.9391 14.6892 20.8984 15.0621 20.868 15.4448C20.7156 16.1023 20.5328 16.7499 20.2891 17.3093C19.1008 20.0078 17.1508 21.8527 14.1242 22.7653C13.2 23.04 11.7578 23.3148 10.4985 23.0989C9.9094 23.0008 9.31019 22.9419 8.78207 22.7653C5.63364 21.7349 3.57192 19.7331 2.48521 16.7205C1.99771 15.3761 1.8149 13.1878 2.2313 11.608C2.45474 10.7641 2.73911 9.92995 3.15552 9.24305C4.07973 7.72204 5.22738 6.52486 6.78128 5.61226C7.18753 5.416 7.59378 5.22955 7.98988 5.03329C8.2641 4.93516 8.52816 4.84685 8.80238 4.75853C8.3555 3.4436 7.88831 2.12867 7.43128 0.823547Z" stroke="#4E4E4E"/>
</svg>
