<svg width="24" height="24" viewBox="0 0 24 24" fill="none" xmlns="http://www.w3.org/2000/svg">
<path d="M12.25 1C10.025 1 7.84989 1.6598 5.99984 2.89597C4.14979 4.13213 2.70785 5.88914 1.85636 7.94481C1.00487 10.0005 0.782087 12.2625 1.21617 14.4448C1.65025 16.6271 2.72171 18.6316 4.29505 20.205C5.8684 21.7783 7.87295 22.8498 10.0552 23.2838C12.2375 23.7179 14.4995 23.4951 16.5552 22.6436C18.6109 21.7922 20.3679 20.3502 21.604 18.5002C22.8402 16.6501 23.5 14.475 23.5 12.25C23.5 10.7726 23.209 9.30972 22.6437 7.94481C22.0783 6.5799 21.2496 5.33971 20.205 4.29505C19.1603 3.25039 17.9201 2.42172 16.5552 1.85636C15.1903 1.29099 13.7274 1 12.25 1V1Z" stroke="white" stroke-linecap="round" stroke-linejoin="round"/>
<path d="M9.14502 17.004L7.23502 11.104L12.25 7.45801L17.265 11.104L15.355 17.004H9.14502Z" stroke="white" stroke-linecap="round" stroke-linejoin="round"/>
<path d="M16.551 1.85101L12.25 4.75001L7.94901 1.85101" stroke="white" stroke-linecap="round" stroke-linejoin="round"/>
<path d="M14.849 23.198L16.988 18.832L21.872 18.082" stroke="white" stroke-linecap="round" stroke-linejoin="round"/>
<path d="M23.464 13.159L20.037 9.74601L20.772 4.90701" stroke="white" stroke-linecap="round" stroke-linejoin="round"/>
<path d="M12.25 4.75V7.458" stroke="white" stroke-linecap="round" stroke-linejoin="round"/>
<path d="M17.265 11.104L20.037 9.746" stroke="white" stroke-linecap="round" stroke-linejoin="round"/>
<path d="M1.03601 13.159L4.46301 9.74601L3.72801 4.90701" stroke="white" stroke-linecap="round" stroke-linejoin="round"/>
<path d="M7.23501 11.104L4.46301 9.746" stroke="white" stroke-linecap="round" stroke-linejoin="round"/>
<path d="M15.355 17.004L16.988 18.832" stroke="white" stroke-linecap="round" stroke-linejoin="round"/>
<path d="M9.65099 23.198L7.51199 18.832L2.62799 18.082" stroke="white" stroke-linecap="round" stroke-linejoin="round"/>
<path d="M9.14499 17.004L7.51199 18.832" stroke="white" stroke-linecap="round" stroke-linejoin="round"/>
</svg>
