<svg width="24" height="24" viewBox="0 0 24 24" fill="none" xmlns="http://www.w3.org/2000/svg">
<path d="M0.75 12C0.75 14.9837 1.93526 17.8452 4.04505 19.955C6.15483 22.0647 9.01631 23.25 12 23.25C14.9837 23.25 17.8452 22.0647 19.955 19.955C22.0647 17.8452 23.25 14.9837 23.25 12C23.25 9.01631 22.0647 6.15483 19.955 4.04505C17.8452 1.93526 14.9837 0.75 12 0.75C9.01631 0.75 6.15483 1.93526 4.04505 4.04505C1.93526 6.15483 0.75 9.01631 0.75 12V12Z" stroke="white" stroke-linecap="round" stroke-linejoin="round"/>
<path d="M6 6.00699C6.32753 6.59593 6.61033 7.20865 6.846 7.83999" stroke="white" stroke-linecap="round" stroke-linejoin="round"/>
<path d="M7.525 10.621C7.62538 11.4855 7.61428 12.3593 7.492 13.221" stroke="white" stroke-linecap="round" stroke-linejoin="round"/>
<path d="M6.73001 15.983C6.43551 16.6871 6.07631 17.3623 5.65701 18" stroke="white" stroke-linecap="round" stroke-linejoin="round"/>
<path d="M18 6.00699C17.6728 6.59596 17.3903 7.20868 17.155 7.83999" stroke="white" stroke-linecap="round" stroke-linejoin="round"/>
<path d="M16.475 10.621C16.3746 11.4855 16.3857 12.3593 16.508 13.221" stroke="white" stroke-linecap="round" stroke-linejoin="round"/>
<path d="M17.27 15.983C17.5644 16.6873 17.924 17.3626 18.344 18" stroke="white" stroke-linecap="round" stroke-linejoin="round"/>
</svg>
