<svg width="24" height="24" viewBox="0 0 24 24" fill="none" xmlns="http://www.w3.org/2000/svg">
<g clip-path="url(#clip0_146_78)">
<path d="M11.625 3.75C11.625 4.44619 11.9016 5.11387 12.3938 5.60616C12.8861 6.09844 13.5538 6.375 14.25 6.375C14.9462 6.375 15.6139 6.09844 16.1062 5.60616C16.5984 5.11387 16.875 4.44619 16.875 3.75C16.875 3.05381 16.5984 2.38613 16.1062 1.89384C15.6139 1.40156 14.9462 1.125 14.25 1.125C13.5538 1.125 12.8861 1.40156 12.3938 1.89384C11.9016 2.38613 11.625 3.05381 11.625 3.75V3.75Z" stroke="white" stroke-linecap="round" stroke-linejoin="round"/>
<path d="M22.306 8.35701L20.026 7.44401C19.3746 7.18554 18.6783 7.05932 17.9777 7.07271C17.277 7.0861 16.586 7.23884 15.945 7.52201L11.8 9.36501C11.6163 9.44572 11.4183 9.48922 11.2177 9.49299C11.0171 9.49677 10.8176 9.46075 10.631 9.38701L8.056 8.35701C7.68655 8.20942 7.27361 8.21463 6.908 8.37151C6.5424 8.52838 6.25409 8.82406 6.1065 9.19351C5.9589 9.56296 5.96412 9.9759 6.12099 10.3415C6.27787 10.7071 6.57355 10.9954 6.943 11.143L9.518 12.173C10.5536 12.5837 11.7043 12.5983 12.75 12.214V14.25L10.95 15.599C10.578 15.8792 10.276 16.2418 10.0678 16.6585C9.85954 17.0751 9.75077 17.5343 9.75 18V21.75C9.75 22.1478 9.90803 22.5294 10.1893 22.8107C10.4706 23.092 10.8522 23.25 11.25 23.25C11.6478 23.25 12.0294 23.092 12.3107 22.8107C12.592 22.5294 12.75 22.1478 12.75 21.75V18L15 16.313V18C14.9995 18.2721 15.0735 18.539 15.214 18.772L17.464 22.522C17.5643 22.693 17.6976 22.8423 17.856 22.9615C18.0144 23.0807 18.1949 23.1672 18.387 23.2162C18.5791 23.2652 18.7789 23.2756 18.9751 23.2469C19.1712 23.2181 19.3597 23.1508 19.5297 23.0488C19.6996 22.9468 19.8477 22.8121 19.9653 22.6525C20.0828 22.4929 20.1676 22.3116 20.2147 22.119C20.2618 21.9264 20.2702 21.7265 20.2396 21.5306C20.2089 21.3348 20.1397 21.147 20.036 20.978L18 17.584V10.072C18.3117 10.0605 18.6224 10.1143 18.912 10.23L21.193 11.143C21.3759 11.2161 21.5715 11.2524 21.7684 11.2499C21.9654 11.2475 22.16 11.2062 22.341 11.1285C22.522 11.0508 22.686 10.9383 22.8235 10.7972C22.961 10.6562 23.0694 10.4894 23.1425 10.3065C23.2156 10.1236 23.2519 9.92805 23.2494 9.73107C23.2469 9.5341 23.2057 9.33955 23.128 9.15852C23.0503 8.97749 22.9378 8.81353 22.7967 8.67601C22.6557 8.53849 22.4889 8.43009 22.306 8.35701V8.35701Z" stroke="white" stroke-linecap="round" stroke-linejoin="round"/>
<path d="M1.10681 4.57841C1.27228 4.93594 1.48895 5.26552 1.74445 5.54834C1.99994 5.83116 2.28925 6.06168 2.59587 6.22674C2.90249 6.39179 3.2204 6.48815 3.53146 6.51031C3.84252 6.53247 4.14063 6.48 4.40878 6.3559C4.67693 6.23179 4.90986 6.03848 5.09427 5.787C5.27868 5.53552 5.41096 5.2308 5.48356 4.89023C5.55616 4.54967 5.56766 4.17992 5.5174 3.80212C5.46713 3.42431 5.35609 3.04584 5.19062 2.68831C5.02515 2.33078 4.80848 2.00119 4.55298 1.71837C4.29749 1.43555 4.00817 1.20503 3.70156 1.03998C3.39494 0.874922 3.07703 0.778563 2.76597 0.756401C2.45491 0.734239 2.15679 0.786709 1.88865 0.910815C1.6205 1.03492 1.38757 1.22823 1.20316 1.47971C1.01875 1.73119 0.886467 2.03591 0.813866 2.37648C0.741266 2.71705 0.729769 3.08679 0.780032 3.4646C0.830295 3.8424 0.941333 4.22088 1.10681 4.57841V4.57841Z" stroke="white" stroke-linecap="round" stroke-linejoin="round"/>
<path d="M4.77301 6.12601L6.44101 8.68701" stroke="white" stroke-linecap="round" stroke-linejoin="round"/>
<path d="M0.75 13.5C0.75 13.8978 0.908035 14.2794 1.18934 14.5607C1.47064 14.842 1.85218 15 2.25 15C2.64782 15 3.02936 14.842 3.31066 14.5607C3.59196 14.2794 3.75 13.8978 3.75 13.5C3.75 13.1022 3.59196 12.7206 3.31066 12.4393C3.02936 12.158 2.64782 12 2.25 12C1.85218 12 1.47064 12.158 1.18934 12.4393C0.908035 12.7206 0.75 13.1022 0.75 13.5V13.5Z" stroke="white" stroke-linecap="round" stroke-linejoin="round"/>
</g>
<defs>
<clipPath id="clip0_146_78">
<rect width="24" height="24" fill="white"/>
</clipPath>
</defs>
</svg>
