<svg width="24" height="24" viewBox="0 0 24 24" fill="none" xmlns="http://www.w3.org/2000/svg">
<path d="M0.75 12C0.75 14.9837 1.93526 17.8452 4.04505 19.955C6.15483 22.0647 9.01631 23.25 12 23.25C14.9837 23.25 17.8452 22.0647 19.955 19.955C22.0647 17.8452 23.25 14.9837 23.25 12C23.25 9.01631 22.0647 6.15483 19.955 4.04505C17.8452 1.93526 14.9837 0.75 12 0.75C9.01631 0.75 6.15483 1.93526 4.04505 4.04505C1.93526 6.15483 0.75 9.01631 0.75 12V12Z" stroke="white" stroke-linecap="round" stroke-linejoin="round"/>
<path d="M20.611 19.24C19.9302 17.388 18.7777 15.7458 17.2674 14.4759C15.7571 13.2061 13.9414 12.3526 12 12" stroke="white" stroke-linecap="round" stroke-linejoin="round"/>
<path d="M1.36499 15.679C3.30466 16.063 5.31154 15.9247 7.18021 15.2783C9.04887 14.6318 10.7122 13.5005 12 12" stroke="white" stroke-linecap="round" stroke-linejoin="round"/>
<path d="M13.889 0.90799C12.6204 2.42413 11.7771 4.24988 11.4453 6.19866C11.1134 8.14745 11.3048 10.1494 12 12" stroke="white" stroke-linecap="round" stroke-linejoin="round"/>
<path d="M4.94201 15.8C3.73205 14.1801 2.98087 12.2641 2.76742 10.2535C2.55397 8.24284 2.88614 6.21185 3.72901 4.37399" stroke="white" stroke-linecap="round" stroke-linejoin="round"/>
<path d="M8.70699 14.617C7.29771 12.6404 6.56545 10.2611 6.61952 7.83415C6.67359 5.40722 7.51109 3.06285 9.00699 1.151" stroke="white" stroke-linecap="round" stroke-linejoin="round"/>
<path d="M12.075 3.95499C14.0408 3.66721 16.0477 3.90484 17.8919 4.64375C19.736 5.38265 21.3518 6.5965 22.575 8.16199" stroke="white" stroke-linecap="round" stroke-linejoin="round"/>
<path d="M11.3 7.861C13.6791 7.54261 16.0979 7.98915 18.2065 9.13605C20.3152 10.2829 22.0044 12.0708 23.03 14.241" stroke="white" stroke-linecap="round" stroke-linejoin="round"/>
<path d="M18.831 16.075C18.0707 17.9443 16.8221 19.5749 15.2158 20.7963C13.6095 22.0177 11.7045 22.785 9.70001 23.018" stroke="white" stroke-linecap="round" stroke-linejoin="round"/>
<path d="M15.851 13.461C14.894 15.673 13.2519 17.5192 11.1666 18.7278C9.08134 19.9363 6.66309 20.4433 4.26801 20.174" stroke="white" stroke-linecap="round" stroke-linejoin="round"/>
</svg>
