<svg width="24" height="24" viewBox="0 0 24 24" fill="none" xmlns="http://www.w3.org/2000/svg">
<g clip-path="url(#clip0_75_149)">
<path d="M17.472 14.382C17.175 14.233 15.714 13.515 15.442 13.415C15.169 13.316 14.971 13.267 14.772 13.565C14.575 13.862 14.005 14.531 13.832 14.729C13.659 14.928 13.485 14.952 13.188 14.804C12.891 14.654 11.933 14.341 10.798 13.329C9.915 12.541 9.318 11.568 9.145 11.27C8.972 10.973 9.127 10.812 9.275 10.664C9.409 10.531 9.573 10.317 9.721 10.144C9.87 9.97004 9.919 9.84604 10.019 9.64704C10.118 9.44904 10.069 9.27604 9.994 9.12704C9.919 8.97804 9.325 7.51504 9.078 6.92004C8.836 6.34104 8.591 6.42004 8.409 6.41004C8.236 6.40204 8.038 6.40004 7.839 6.40004C7.641 6.40004 7.319 6.47404 7.047 6.77204C6.775 7.06904 6.007 7.78804 6.007 9.25104C6.007 10.713 7.072 12.126 7.22 12.325C7.369 12.523 9.316 15.525 12.297 16.812C13.006 17.118 13.559 17.301 13.991 17.437C14.703 17.664 15.351 17.632 15.862 17.555C16.433 17.47 17.62 16.836 17.868 16.142C18.116 15.448 18.116 14.853 18.041 14.729C17.967 14.605 17.769 14.531 17.471 14.382H17.472ZM12.05 21.785H12.046C10.2758 21.7852 8.53808 21.3092 7.015 20.407L6.654 20.193L2.913 21.175L3.911 17.527L3.676 17.153C2.68644 15.5773 2.16294 13.7537 2.166 11.893C2.167 6.44304 6.602 2.00904 12.054 2.00904C14.694 2.00904 17.176 3.03904 19.042 4.90704C19.9627 5.82366 20.6924 6.91377 21.189 8.11428C21.6856 9.3148 21.9391 10.6019 21.935 11.901C21.932 17.351 17.498 21.785 12.05 21.785ZM20.463 3.48804C19.3612 2.37896 18.0502 1.49958 16.6061 0.900841C15.1619 0.302105 13.6133 -0.00407625 12.05 4.09775e-05C5.495 4.09775e-05 0.16 5.33504 0.157 11.892C0.157 13.988 0.704 16.034 1.745 17.837L0.0570002 24L6.362 22.346C8.10559 23.296 10.0594 23.7938 12.045 23.794H12.05C18.604 23.794 23.94 18.459 23.943 11.901C23.9478 10.3383 23.6428 8.79014 23.0454 7.34607C22.4481 5.90201 21.5704 4.59071 20.463 3.48804Z" fill="white"/>
</g>
<defs>
<clipPath id="clip0_75_149">
<rect width="24" height="24" fill="white"/>
</clipPath>
</defs>
</svg>
